<svg id="visual" viewBox="0 0 900 600" width="900" height="600" xmlns="http://www.w3.org/2000/svg" xmlns:xlink="http://www.w3.org/1999/xlink" version="1.1"><path d="M0 43L13.7 46C27.3 49 54.7 55 82 61C109.3 67 136.7 73 163.8 72C191 71 218 63 245.2 62C272.3 61 299.7 67 327 70C354.3 73 381.7 73 409 79C436.3 85 463.7 97 491 105C518.3 113 545.7 117 573 105C600.3 93 627.7 65 654.8 64C682 63 709 89 736.2 99C763.3 109 790.7 103 818 90C845.3 77 872.7 57 886.3 47L900 37L900 0L886.3 0C872.7 0 845.3 0 818 0C790.7 0 763.3 0 736.2 0C709 0 682 0 654.8 0C627.7 0 600.3 0 573 0C545.7 0 518.3 0 491 0C463.7 0 436.3 0 409 0C381.7 0 354.3 0 327 0C299.7 0 272.3 0 245.2 0C218 0 191 0 163.8 0C136.7 0 109.3 0 82 0C54.7 0 27.3 0 13.7 0L0 0Z" fill="#6198ff"></path><path d="M0 181L13.7 172C27.3 163 54.7 145 82 156C109.3 167 136.7 207 163.8 222C191 237 218 227 245.2 225C272.3 223 299.7 229 327 229C354.3 229 381.7 223 409 216C436.3 209 463.7 201 491 196C518.3 191 545.7 189 573 187C600.3 185 627.7 183 654.8 182C682 181 709 181 736.2 182C763.3 183 790.7 185 818 171C845.3 157 872.7 127 886.3 112L900 97L900 35L886.3 45C872.7 55 845.3 75 818 88C790.7 101 763.3 107 736.2 97C709 87 682 61 654.8 62C627.7 63 600.3 91 573 103C545.7 115 518.3 111 491 103C463.7 95 436.3 83 409 77C381.7 71 354.3 71 327 68C299.7 65 272.3 59 245.2 60C218 61 191 69 163.8 70C136.7 71 109.3 65 82 59C54.7 53 27.3 47 13.7 44L0 41Z" fill="#3c80ff"></path><path d="M0 337L13.7 338C27.3 339 54.7 341 82 359C109.3 377 136.7 411 163.8 422C191 433 218 421 245.2 422C272.3 423 299.7 437 327 434C354.3 431 381.7 411 409 382C436.3 353 463.7 315 491 297C518.3 279 545.7 281 573 279C600.3 277 627.7 271 654.8 300C682 329 709 393 736.2 398C763.3 403 790.7 349 818 317C845.3 285 872.7 275 886.3 270L900 265L900 95L886.3 110C872.7 125 845.3 155 818 169C790.7 183 763.3 181 736.2 180C709 179 682 179 654.8 180C627.7 181 600.3 183 573 185C545.7 187 518.3 189 491 194C463.7 199 436.3 207 409 214C381.7 221 354.3 227 327 227C299.7 227 272.3 221 245.2 223C218 225 191 235 163.8 220C136.7 205 109.3 165 82 154C54.7 143 27.3 161 13.7 170L0 179Z" fill="#0066ff"></path><path d="M0 415L13.7 412C27.3 409 54.7 403 82 417C109.3 431 136.7 465 163.8 475C191 485 218 471 245.2 473C272.3 475 299.7 493 327 498C354.3 503 381.7 495 409 468C436.3 441 463.7 395 491 377C518.3 359 545.7 369 573 372C600.3 375 627.7 371 654.8 390C682 409 709 451 736.2 447C763.3 443 790.7 393 818 372C845.3 351 872.7 359 886.3 363L900 367L900 263L886.3 268C872.7 273 845.3 283 818 315C790.7 347 763.3 401 736.2 396C709 391 682 327 654.8 298C627.7 269 600.3 275 573 277C545.7 279 518.3 277 491 295C463.7 313 436.3 351 409 380C381.7 409 354.3 429 327 432C299.7 435 272.3 421 245.2 420C218 419 191 431 163.8 420C136.7 409 109.3 375 82 357C54.7 339 27.3 337 13.7 336L0 335Z" fill="#0059dd"></path><path d="M0 601L13.7 601C27.3 601 54.7 601 82 601C109.3 601 136.7 601 163.8 601C191 601 218 601 245.2 601C272.3 601 299.7 601 327 601C354.3 601 381.7 601 409 601C436.3 601 463.7 601 491 601C518.3 601 545.7 601 573 601C600.3 601 627.7 601 654.8 601C682 601 709 601 736.2 601C763.3 601 790.7 601 818 601C845.3 601 872.7 601 886.3 601L900 601L900 365L886.3 361C872.7 357 845.3 349 818 370C790.7 391 763.3 441 736.2 445C709 449 682 407 654.8 388C627.7 369 600.3 373 573 370C545.7 367 518.3 357 491 375C463.7 393 436.3 439 409 466C381.7 493 354.3 501 327 496C299.7 491 272.3 473 245.2 471C218 469 191 483 163.8 473C136.7 463 109.3 429 82 415C54.7 401 27.3 407 13.7 410L0 413Z" fill="#004cbb"></path></svg>